<?xml version="1.0" encoding="UTF-8"?>
<svg xmlns="http://www.w3.org/2000/svg" xmlns:xlink="http://www.w3.org/1999/xlink" width="96pt" height="96pt" viewBox="0 0 96 96" version="1.1">
<g id="surface10025">
<path style=" stroke:none;fill-rule:evenodd;fill:rgb(71.372551%,70.980394%,70.980394%);fill-opacity:1;" d="M 27.011719 48.007812 L 27.011719 42.007812 L 30.011719 39.007812 L 27.011719 36.007812 L 27.011719 12.007812 L 33.011719 12.007812 L 33.011719 6.007812 L 39.011719 6.007812 L 39.011719 18.007812 L 33.011719 18.007812 L 33.011719 24.007812 L 39.011719 24.007812 L 45.011719 30.007812 L 36.011719 39.007812 L 39.011719 42.007812 L 39.011719 48.007812 Z M 27.011719 48.007812 "/>
<path style=" stroke:none;fill-rule:evenodd;fill:rgb(43.921569%,42.745098%,40.392157%);fill-opacity:1;" d="M 27.007812 36.011719 L 27.007812 42.007812 L 39.011719 42.007812 L 39.011719 36.011719 Z M 27.007812 36.011719 "/>
<path style=" stroke:none;fill-rule:evenodd;fill:rgb(94.509804%,56.078434%,2.352941%);fill-opacity:1;" d="M 39.007812 24.011719 L 39.007812 36.007812 L 81.011719 36.007812 L 81.011719 24.011719 Z M 39.007812 24.011719 "/>
<path style=" stroke:none;fill-rule:evenodd;fill:rgb(43.921569%,42.745098%,40.392157%);fill-opacity:1;" d="M 27.011719 90.007812 L 27.011719 84.007812 L 33.011719 84.007812 L 33.011719 78.007812 L 39.011719 78.007812 L 39.011719 69.007812 L 63.011719 69.007812 L 63.011719 78.007812 L 69.011719 78.007812 L 69.011719 84.007812 L 75.011719 84.007812 L 75.011719 90.007812 L 57.011719 90.007812 L 57.011719 84.007812 L 45.011719 84.007812 L 45.011719 90.007812 Z M 27.011719 90.007812 "/>
<path style=" stroke:none;fill-rule:evenodd;fill:rgb(43.921569%,42.745098%,40.392157%);fill-opacity:1;" d="M 15.011719 72.007812 L 15.011719 66.007812 L 9.011719 66.007812 L 9.011719 60.007812 L 27.011719 60.007812 L 21.011719 72.007812 Z M 15.011719 72.007812 "/>
<path style=" stroke:none;fill-rule:evenodd;fill:rgb(71.372551%,70.980394%,70.980394%);fill-opacity:1;" d="M 21.011719 72.007812 L 21.011719 54.007812 L 87.011719 54.007812 L 87.011719 60.007812 L 81.011719 60.007812 L 81.011719 66.007812 L 75.011719 66.007812 L 75.011719 72.007812 Z M 21.011719 72.007812 "/>
</g>
</svg>
